<svg id="svg" version="1.1" xmlns="http://www.w3.org/2000/svg" xmlns:xlink="http://www.w3.org/1999/xlink" width="400" height="400" viewBox="0, 0, 400,400"><g id="svgg"><path id="path0" d="M23.693 34.800 C 23.693 35.570,23.775 35.885,23.876 35.500 C 23.976 35.115,23.976 34.485,23.876 34.100 C 23.775 33.715,23.693 34.030,23.693 34.800 M376.093 34.800 C 376.093 35.570,376.175 35.885,376.276 35.500 C 376.376 35.115,376.376 34.485,376.276 34.100 C 376.175 33.715,376.093 34.030,376.093 34.800 M82.571 47.613 C 80.260 47.803,78.371 48.199,77.371 48.704 C 76.507 49.140,75.352 49.636,74.803 49.806 C 73.010 50.362,70.157 53.148,68.959 55.513 L 67.800 57.800 67.686 67.000 C 67.624 72.060,67.728 85.380,67.918 96.600 L 68.262 117.000 69.307 119.800 C 70.574 123.198,74.070 126.782,76.902 127.586 C 79.748 128.394,94.269 128.578,99.600 127.874 C 121.682 124.956,131.248 102.760,116.503 88.655 C 112.335 84.669,111.621 82.443,113.597 79.600 C 120.325 69.921,118.006 57.352,108.600 52.520 C 107.940 52.181,107.109 51.649,106.753 51.338 C 104.593 49.448,92.088 46.900,86.800 47.272 C 86.470 47.295,84.567 47.448,82.571 47.613 M158.600 49.261 C 153.684 51.765,149.344 58.097,147.400 65.600 C 147.075 66.855,146.548 68.505,146.229 69.268 C 145.687 70.566,144.279 76.695,142.936 83.600 C 142.615 85.250,142.070 87.770,141.725 89.200 C 141.380 90.630,140.837 92.880,140.519 94.200 C 140.201 95.520,139.434 98.310,138.815 100.400 C 138.197 102.490,137.480 105.332,137.222 106.715 C 136.964 108.099,136.500 109.950,136.190 110.828 C 135.335 113.253,134.683 118.999,134.987 121.434 C 136.299 131.936,153.773 131.558,155.019 121.000 C 155.765 114.672,160.191 111.558,166.990 112.578 C 168.995 112.878,172.400 115.668,172.400 117.010 C 172.400 118.046,174.407 123.661,175.309 125.151 C 178.392 130.238,189.869 129.034,192.006 123.400 C 192.671 121.648,192.538 114.996,191.787 112.400 C 191.436 111.190,190.724 108.400,190.202 106.200 C 189.681 104.000,188.992 101.468,188.671 100.573 C 188.350 99.678,187.876 97.878,187.618 96.573 C 187.360 95.268,186.804 93.120,186.383 91.800 C 185.962 90.480,185.333 87.607,184.985 85.416 C 184.636 83.224,184.015 80.164,183.604 78.616 C 183.193 77.067,182.742 74.990,182.602 74.000 C 182.290 71.799,179.872 63.805,178.608 60.800 C 178.099 59.590,177.554 58.150,177.396 57.600 C 175.253 50.122,165.449 45.772,158.600 49.261 M284.522 50.017 C 279.930 51.435,279.132 56.129,279.217 81.200 C 279.360 123.243,279.329 122.802,282.288 125.690 C 286.321 129.627,296.180 129.279,299.066 125.099 L 300.200 123.456 300.093 116.628 C 299.920 105.567,302.555 101.483,307.672 104.882 C 310.314 106.637,311.708 108.889,316.339 118.892 C 320.417 127.701,326.600 130.319,332.328 125.662 C 337.053 121.821,336.878 115.523,331.794 106.400 C 329.741 102.715,328.595 100.727,327.414 98.800 C 319.741 86.280,319.536 82.693,326.048 74.946 C 335.037 64.254,336.277 58.199,330.394 53.724 C 325.214 49.783,317.858 52.708,312.928 60.668 C 308.080 68.495,304.469 72.000,302.490 70.796 C 300.740 69.732,300.671 69.517,300.168 63.600 C 299.529 56.094,297.878 52.208,294.600 50.498 C 293.163 49.748,286.432 49.427,284.522 50.017 M213.307 51.797 C 203.676 56.174,202.043 68.068,205.205 110.800 C 206.156 123.649,212.608 130.822,219.847 127.079 C 224.629 124.606,225.849 120.259,225.464 107.060 C 225.265 100.236,225.325 98.519,225.795 97.609 C 227.291 94.716,230.350 95.990,233.443 100.795 C 234.300 102.125,235.900 104.561,237.000 106.208 C 239.819 110.428,241.453 113.131,242.373 115.095 C 244.315 119.239,249.113 124.298,251.859 125.097 C 258.672 127.080,262.811 125.178,264.724 119.184 C 267.311 111.080,268.753 62.420,266.549 57.600 C 262.419 48.564,250.165 48.696,247.650 57.803 C 247.409 58.677,247.103 61.553,246.971 64.196 C 246.588 71.833,245.484 75.200,243.364 75.200 C 241.073 75.200,240.010 74.180,236.279 68.399 C 227.221 54.367,219.666 48.907,213.307 51.797 M95.640 65.656 C 97.173 66.233,98.569 68.978,98.562 71.400 C 98.542 78.749,88.440 80.777,87.123 73.696 C 85.830 66.743,89.450 63.325,95.640 65.656 M166.424 86.672 C 167.747 90.682,168.311 96.149,167.557 97.657 C 165.655 101.458,160.058 98.764,160.791 94.400 C 161.596 89.601,162.930 83.743,163.330 83.253 C 163.886 82.572,165.751 84.632,166.424 86.672 M94.677 97.001 C 102.132 99.214,102.038 108.917,94.544 110.809 C 89.551 112.070,87.534 110.369,87.298 104.696 C 86.989 97.251,88.880 95.279,94.677 97.001 " stroke="none" fill="#f9fafa" fill-rule="evenodd"></path><path id="path1" d="M46.400 6.826 C 46.400 7.058,46.232 7.144,46.028 7.017 C 45.823 6.891,45.549 6.959,45.419 7.169 C 45.289 7.379,45.449 7.699,45.773 7.881 C 46.183 8.110,46.249 8.394,45.988 8.806 C 45.679 9.295,45.611 9.262,45.606 8.620 C 45.601 8.013,45.493 7.947,45.120 8.320 C 44.856 8.584,43.945 8.800,43.096 8.800 C 41.968 8.800,41.634 8.934,41.853 9.300 C 42.084 9.684,42.020 9.695,41.577 9.346 C 40.920 8.829,39.200 9.310,39.200 10.011 C 39.200 10.251,39.378 10.337,39.595 10.203 C 39.822 10.063,39.889 10.223,39.754 10.577 C 39.623 10.917,39.355 11.096,39.158 10.974 C 38.961 10.852,38.800 10.938,38.800 11.164 C 38.800 11.390,38.575 11.491,38.300 11.388 C 37.367 11.039,35.396 12.646,36.203 13.098 C 36.827 13.447,36.813 13.503,36.045 13.704 C 35.580 13.826,35.300 13.762,35.423 13.563 C 35.546 13.363,35.457 13.200,35.224 13.200 C 34.991 13.200,34.800 13.450,34.800 13.757 C 34.800 14.063,34.314 14.435,33.721 14.584 C 32.884 14.794,32.771 14.935,33.218 15.211 C 33.676 15.494,33.692 15.668,33.297 16.063 C 32.920 16.440,32.800 16.444,32.800 16.080 C 32.800 15.816,32.609 15.600,32.376 15.600 C 32.143 15.600,32.052 15.761,32.174 15.958 C 32.296 16.155,32.126 16.419,31.798 16.546 C 31.469 16.672,31.200 16.983,31.200 17.236 C 31.200 17.563,31.381 17.548,31.818 17.185 C 32.301 16.784,32.280 16.945,31.718 17.925 C 31.202 18.827,30.766 19.136,30.167 19.028 C 29.708 18.945,29.300 19.085,29.259 19.339 C 29.218 19.592,29.124 20.340,29.051 21.000 C 28.949 21.916,28.721 22.193,28.088 22.171 C 27.187 22.140,26.400 24.309,26.400 26.820 C 26.400 27.741,26.247 28.027,25.839 27.870 C 24.957 27.532,24.740 28.062,25.506 28.686 C 26.021 29.105,26.046 29.210,25.604 29.093 C 23.946 28.656,24.007 21.576,24.002 214.968 L 23.997 400.000 86.583 400.000 L 149.169 400.000 149.284 367.500 C 149.405 333.473,149.370 334.173,151.063 332.480 C 151.358 332.184,151.600 331.483,151.600 330.920 C 151.600 329.619,156.342 324.000,157.440 324.000 C 157.730 324.000,158.393 323.541,158.914 322.980 C 159.641 322.196,160.478 321.872,162.534 321.581 C 164.006 321.372,165.972 321.026,166.905 320.811 C 169.880 320.124,230.355 320.281,234.200 320.985 C 235.960 321.308,238.057 321.673,238.861 321.797 C 239.813 321.943,240.548 322.367,240.970 323.011 C 241.327 323.555,241.949 324.000,242.353 324.000 C 243.568 324.000,248.400 329.456,248.400 330.827 C 248.400 331.338,248.895 332.471,249.500 333.344 L 250.600 334.931 250.716 367.465 L 250.831 400.000 313.417 400.000 L 376.003 400.000 375.998 214.968 C 375.993 21.576,376.054 28.656,374.396 29.093 C 373.954 29.210,373.979 29.105,374.494 28.686 C 375.260 28.062,375.043 27.532,374.161 27.870 C 373.753 28.027,373.600 27.741,373.600 26.820 C 373.600 24.309,372.813 22.140,371.912 22.171 C 371.279 22.193,371.051 21.916,370.949 21.000 C 370.876 20.340,370.782 19.606,370.741 19.368 C 370.700 19.131,370.282 19.010,369.812 19.100 C 369.190 19.219,368.826 18.976,368.476 18.206 C 368.205 17.613,368.171 17.258,368.397 17.398 C 368.619 17.535,368.800 17.457,368.800 17.224 C 368.800 16.991,368.620 16.800,368.400 16.800 C 368.180 16.800,368.000 16.508,368.000 16.151 C 368.000 15.638,367.882 15.600,367.436 15.970 C 367.003 16.329,366.802 16.326,366.574 15.958 C 366.369 15.626,366.450 15.579,366.838 15.807 C 367.147 15.989,366.950 15.684,366.400 15.130 C 365.850 14.575,364.863 13.990,364.206 13.829 C 363.136 13.568,363.088 13.494,363.749 13.125 C 364.601 12.648,362.682 11.020,361.700 11.388 C 361.425 11.491,361.200 11.379,361.200 11.138 C 361.200 10.838,361.024 10.848,360.636 11.170 C 360.203 11.529,360.002 11.526,359.774 11.158 C 359.596 10.870,359.645 10.781,359.896 10.936 C 360.377 11.233,360.767 10.444,360.508 9.700 C 360.412 9.425,360.146 9.200,359.918 9.200 C 359.664 9.200,359.638 9.403,359.851 9.719 C 360.043 10.004,359.910 9.925,359.556 9.543 C 359.074 9.024,358.796 8.964,358.456 9.304 C 358.115 9.645,358.000 9.639,358.000 9.280 C 358.000 8.996,357.416 8.800,356.573 8.800 C 355.295 8.800,355.175 8.710,355.419 7.939 C 355.636 7.255,355.560 7.130,355.046 7.327 C 354.691 7.463,354.400 7.390,354.400 7.164 C 354.400 6.938,354.220 6.864,354.000 7.000 C 353.780 7.136,353.600 7.058,353.600 6.826 C 353.600 6.531,307.368 6.404,200.000 6.404 C 92.632 6.404,46.400 6.531,46.400 6.826 M92.400 47.588 C 97.508 47.953,105.173 49.956,106.753 51.338 C 107.109 51.649,107.940 52.181,108.600 52.520 C 118.006 57.352,120.325 69.921,113.597 79.600 C 111.621 82.443,112.335 84.669,116.503 88.655 C 131.248 102.760,121.682 124.956,99.600 127.874 C 94.269 128.578,79.748 128.394,76.902 127.586 C 74.070 126.782,70.574 123.198,69.307 119.800 L 68.262 117.000 67.918 96.600 C 67.728 85.380,67.624 72.060,67.686 67.000 L 67.800 57.800 68.959 55.513 C 70.157 53.148,73.010 50.362,74.803 49.806 C 75.352 49.636,76.507 49.140,77.371 48.704 C 78.739 48.014,80.892 47.687,86.800 47.272 C 87.130 47.249,89.650 47.391,92.400 47.588 M169.312 49.036 C 172.820 50.497,176.469 54.363,177.396 57.600 C 177.554 58.150,178.099 59.590,178.608 60.800 C 179.872 63.805,182.290 71.799,182.602 74.000 C 182.742 74.990,183.193 77.067,183.604 78.616 C 184.015 80.164,184.636 83.224,184.985 85.416 C 185.333 87.607,185.962 90.480,186.383 91.800 C 186.804 93.120,187.360 95.268,187.618 96.573 C 187.876 97.878,188.350 99.678,188.671 100.573 C 188.992 101.468,189.681 104.000,190.202 106.200 C 190.724 108.400,191.436 111.190,191.787 112.400 C 192.538 114.996,192.671 121.648,192.006 123.400 C 189.869 129.034,178.392 130.238,175.309 125.151 C 174.407 123.661,172.400 118.046,172.400 117.010 C 172.400 115.668,168.995 112.878,166.990 112.578 C 160.191 111.558,155.765 114.672,155.019 121.000 C 153.773 131.558,136.299 131.936,134.987 121.434 C 134.683 118.999,135.335 113.253,136.190 110.828 C 136.500 109.950,136.964 108.099,137.222 106.715 C 137.480 105.332,138.197 102.490,138.815 100.400 C 139.434 98.310,140.201 95.520,140.519 94.200 C 140.837 92.880,141.380 90.630,141.725 89.200 C 142.070 87.770,142.615 85.250,142.936 83.600 C 144.279 76.695,145.687 70.566,146.229 69.268 C 146.548 68.505,147.075 66.855,147.400 65.600 C 150.880 52.172,160.102 45.200,169.312 49.036 M294.600 50.498 C 297.878 52.208,299.529 56.094,300.168 63.600 C 300.671 69.517,300.740 69.732,302.490 70.796 C 304.469 72.000,308.080 68.495,312.928 60.668 C 317.858 52.708,325.214 49.783,330.394 53.724 C 336.277 58.199,335.037 64.254,326.048 74.946 C 319.536 82.693,319.741 86.280,327.414 98.800 C 328.595 100.727,329.741 102.715,331.794 106.400 C 336.878 115.523,337.053 121.821,332.328 125.662 C 326.600 130.319,320.417 127.701,316.339 118.892 C 311.708 108.889,310.314 106.637,307.672 104.882 C 302.555 101.483,299.920 105.567,300.093 116.628 L 300.200 123.456 299.066 125.099 C 296.180 129.279,286.321 129.627,282.288 125.690 C 279.329 122.802,279.360 123.243,279.217 81.200 C 279.116 51.572,279.825 49.426,289.600 49.747 C 292.052 49.828,293.826 50.094,294.600 50.498 M220.588 51.812 C 224.926 53.730,230.857 60.000,236.279 68.399 C 240.010 74.180,241.073 75.200,243.364 75.200 C 245.484 75.200,246.588 71.833,246.971 64.196 C 247.103 61.553,247.409 58.677,247.650 57.803 C 250.165 48.696,262.419 48.564,266.549 57.600 C 268.753 62.420,267.311 111.080,264.724 119.184 C 262.811 125.178,258.672 127.080,251.859 125.097 C 249.113 124.298,244.315 119.239,242.373 115.095 C 241.453 113.131,239.819 110.428,237.000 106.208 C 235.900 104.561,234.300 102.125,233.443 100.795 C 230.350 95.990,227.291 94.716,225.795 97.609 C 225.325 98.519,225.265 100.236,225.464 107.060 C 225.849 120.259,224.629 124.606,219.847 127.079 C 212.608 130.822,206.156 123.649,205.205 110.800 C 203.067 81.904,203.498 63.933,206.470 58.128 C 209.439 52.328,215.561 49.589,220.588 51.812 M90.020 65.233 C 87.521 65.774,86.309 69.317,87.123 73.696 C 88.440 80.777,98.542 78.749,98.562 71.400 C 98.576 66.708,95.031 64.149,90.020 65.233 M163.330 83.253 C 162.930 83.743,161.596 89.601,160.791 94.400 C 160.058 98.764,165.655 101.458,167.557 97.657 C 169.223 94.327,165.274 80.870,163.330 83.253 M89.600 96.963 C 87.161 97.838,86.079 107.256,88.154 109.549 C 90.631 112.287,97.605 111.071,99.406 107.588 C 102.484 101.636,96.040 94.653,89.600 96.963 M111.166 161.221 C 113.286 162.924,113.279 162.823,113.126 189.133 L 113.000 210.866 111.694 212.033 L 110.387 213.200 90.325 213.200 C 69.125 213.200,68.800 213.173,68.800 211.399 C 68.800 211.137,68.523 210.367,68.184 209.688 C 67.647 208.612,67.583 205.585,67.684 186.127 L 67.800 163.800 69.004 162.017 C 70.589 159.670,69.375 159.789,90.816 159.876 L 109.587 159.952 111.166 161.221 M182.600 160.195 C 183.040 160.294,183.895 160.838,184.500 161.404 L 185.600 162.432 185.600 186.772 C 185.600 210.138,185.569 211.149,184.836 212.056 L 184.071 213.000 163.629 213.111 C 150.779 213.180,142.914 213.075,142.452 212.828 C 140.994 212.048,140.800 208.877,140.800 185.860 C 140.800 161.527,140.855 160.982,143.422 160.126 C 144.407 159.797,181.118 159.862,182.600 160.195 M256.261 160.838 C 258.411 162.167,258.400 162.032,258.398 186.526 C 258.395 210.906,258.308 212.151,256.550 212.819 C 254.791 213.488,215.908 213.313,214.976 212.632 C 214.224 212.083,214.197 211.285,214.091 187.164 L 213.982 162.262 215.045 161.153 C 216.419 159.719,215.284 159.786,236.532 159.887 C 254.538 159.973,254.889 159.990,256.261 160.838 M329.029 160.818 C 330.922 161.988,330.840 160.683,330.714 187.732 C 330.604 211.288,330.575 212.083,329.824 212.632 C 328.351 213.709,288.351 213.451,287.362 212.358 C 286.630 211.550,286.600 210.547,286.600 186.985 L 286.600 162.453 287.754 161.248 C 289.231 159.706,287.968 159.786,309.328 159.885 C 327.230 159.968,327.688 159.989,329.029 160.818 M110.869 236.389 C 112.623 237.491,112.754 237.693,112.994 239.681 C 113.352 242.644,113.070 285.661,112.687 286.421 C 111.705 288.375,111.417 288.400,90.315 288.400 C 68.500 288.400,69.600 288.532,68.453 285.771 C 67.459 283.379,67.462 239.580,68.457 237.873 C 69.999 235.226,69.818 235.248,90.400 235.231 L 109.000 235.215 110.869 236.389 M182.224 235.787 C 182.651 236.110,183.256 236.380,183.569 236.387 C 185.652 236.434,185.600 235.784,185.600 261.829 C 185.600 287.748,185.650 286.947,183.971 287.815 C 182.421 288.616,143.331 288.696,142.315 287.900 C 140.987 286.860,140.800 283.559,140.800 261.167 C 140.800 236.875,140.778 237.101,143.248 235.884 C 145.173 234.936,180.980 234.847,182.224 235.787 M255.770 236.028 C 258.482 237.227,258.400 236.431,258.398 261.726 C 258.395 285.941,258.312 287.147,256.580 287.936 C 254.517 288.876,215.764 288.564,214.800 287.600 C 214.017 286.817,214.000 286.267,214.000 262.014 L 214.000 237.229 215.493 236.214 L 216.986 235.200 235.442 235.200 C 253.235 235.200,253.966 235.230,255.770 236.028 M328.815 236.100 L 330.600 237.000 330.703 261.819 C 330.790 282.798,330.718 286.760,330.235 287.419 C 329.343 288.640,289.049 288.854,287.557 287.646 L 286.600 286.871 286.477 263.536 C 286.325 234.733,286.065 236.807,290.000 235.467 C 292.343 234.670,327.102 235.236,328.815 236.100 " stroke="none" fill="#7ba4ac" fill-rule="evenodd"></path><path id="path2" d="M356.333 7.505 C 356.840 8.217,357.422 8.800,357.627 8.800 C 358.388 8.800,357.961 8.027,356.705 7.133 L 355.411 6.211 356.333 7.505 M71.877 163.078 C 71.480 163.182,70.985 163.714,70.777 164.260 C 70.110 166.014,70.289 208.496,70.967 209.424 C 71.513 210.170,72.256 210.205,90.067 210.317 L 108.600 210.434 109.300 209.573 C 110.211 208.452,110.382 165.778,109.482 164.000 L 108.977 163.000 90.788 162.944 C 80.785 162.914,72.275 162.974,71.877 163.078 M144.400 163.158 L 143.400 163.436 143.297 186.266 C 143.202 207.132,143.251 209.144,143.858 209.648 C 144.397 210.096,148.017 210.222,163.042 210.315 L 181.562 210.430 182.194 209.465 C 183.077 208.118,182.941 164.534,182.051 163.461 C 181.473 162.765,146.817 162.486,144.400 163.158 M217.100 163.265 L 216.000 163.667 216.000 186.423 L 216.000 209.179 217.180 209.790 C 219.149 210.808,253.608 210.696,254.538 209.669 C 255.648 208.442,255.541 163.810,254.426 163.214 C 253.393 162.661,218.624 162.708,217.100 163.265 M290.100 163.288 L 289.200 163.722 289.200 186.415 L 289.200 209.108 290.186 209.754 C 291.056 210.324,293.255 210.400,308.916 210.400 L 326.661 210.400 327.546 209.457 L 328.432 208.514 328.316 186.225 C 328.204 164.693,328.174 163.916,327.424 163.368 C 326.431 162.642,291.593 162.568,290.100 163.288 M71.200 238.389 C 70.305 238.958,70.066 283.391,70.952 284.602 C 71.518 285.376,72.085 285.403,90.067 285.517 L 108.600 285.634 109.300 284.773 C 110.031 283.873,110.347 241.735,109.642 239.200 L 109.364 238.200 90.582 238.104 C 79.183 238.046,71.564 238.158,71.200 238.389 M144.100 238.412 L 143.200 238.774 143.200 261.538 C 143.200 282.220,143.260 284.352,143.861 284.851 C 144.396 285.295,148.052 285.421,163.008 285.511 L 181.493 285.623 182.162 284.601 C 183.124 283.133,182.969 239.004,182.000 238.391 C 181.226 237.902,145.319 237.922,144.100 238.412 M217.200 238.292 C 216.053 238.728,216.012 239.527,216.006 261.890 L 216.000 284.379 217.180 284.990 C 219.149 286.008,253.608 285.896,254.538 284.869 C 255.394 283.922,255.569 239.329,254.720 238.480 C 254.221 237.981,218.486 237.802,217.200 238.292 M289.829 238.629 C 289.272 239.185,289.200 241.838,289.200 261.783 L 289.200 284.308 290.186 284.954 C 291.056 285.524,293.255 285.600,308.916 285.600 L 326.661 285.600 327.546 284.657 L 328.432 283.714 328.316 261.518 C 328.221 243.422,328.099 239.200,327.651 238.661 C 326.835 237.678,290.810 237.647,289.829 238.629 M162.000 324.554 C 158.464 326.126,156.320 328.046,154.169 331.570 L 152.600 334.139 152.487 367.070 L 152.373 400.000 200.000 400.000 L 247.627 400.000 247.513 367.070 L 247.400 334.139 245.831 331.570 C 243.682 328.050,241.548 326.155,237.935 324.556 L 234.870 323.200 199.935 323.210 L 165.000 323.221 162.000 324.554 " stroke="none" fill="#046ca4" fill-rule="evenodd"></path><path id="path3" d="M43.283 8.016 C 42.881 8.659,42.897 8.800,43.373 8.800 C 44.114 8.800,44.429 8.294,44.060 7.697 C 43.862 7.377,43.620 7.477,43.283 8.016 M361.000 10.800 C 361.136 11.020,361.517 11.200,361.847 11.200 C 362.177 11.200,362.336 11.020,362.200 10.800 C 362.064 10.580,361.683 10.400,361.353 10.400 C 361.023 10.400,360.864 10.580,361.000 10.800 M29.829 17.429 C 29.483 17.774,29.205 18.269,29.212 18.529 C 29.219 18.788,29.405 18.691,29.625 18.313 C 29.845 17.935,30.335 17.445,30.713 17.225 C 31.091 17.005,31.188 16.819,30.929 16.812 C 30.669 16.805,30.174 17.083,29.829 17.429 M369.538 17.442 C 370.064 17.810,370.359 18.329,370.231 18.662 C 370.107 18.986,370.184 19.134,370.405 18.997 C 371.191 18.511,370.161 16.800,369.082 16.800 C 368.829 16.800,369.034 17.089,369.538 17.442 M70.000 162.400 C 69.218 163.182,69.200 163.733,69.200 186.569 L 69.200 209.939 70.236 211.169 L 71.271 212.400 90.254 212.400 L 109.236 212.400 110.192 211.445 C 111.621 210.015,111.645 209.557,111.518 185.464 L 111.400 163.129 110.456 162.364 C 108.951 161.146,71.221 161.179,70.000 162.400 M142.562 162.442 C 141.836 163.244,141.794 164.304,141.675 185.142 C 141.539 208.925,141.596 210.032,143.014 211.450 L 143.964 212.400 162.808 212.400 C 182.981 212.400,182.617 212.437,183.977 210.237 C 184.819 208.874,184.825 208.696,184.713 186.197 L 184.600 163.530 183.478 162.565 L 182.355 161.600 162.840 161.600 C 143.510 161.600,143.317 161.608,142.562 162.442 M215.229 162.654 C 214.137 164.042,213.910 207.652,214.981 210.215 C 215.885 212.379,216.088 212.400,236.066 212.400 L 254.480 212.400 255.840 211.040 L 257.200 209.680 257.200 186.469 L 257.200 163.258 256.146 162.429 C 255.113 161.616,254.714 161.600,235.575 161.600 L 216.058 161.600 215.229 162.654 M288.182 162.582 L 287.200 163.564 287.200 186.402 C 287.200 211.340,287.169 210.993,289.492 211.955 C 290.314 212.296,295.732 212.393,309.346 212.312 L 328.070 212.200 329.035 211.078 L 330.000 209.955 329.994 186.678 C 329.991 173.875,329.856 163.202,329.694 162.960 C 328.839 161.680,327.590 161.600,308.408 161.600 L 289.164 161.600 288.182 162.582 M109.482 164.000 C 110.382 165.778,110.211 208.452,109.300 209.573 L 108.600 210.434 90.067 210.317 C 72.256 210.205,71.513 210.170,70.967 209.424 C 70.289 208.496,70.110 166.014,70.777 164.260 C 71.313 162.850,70.802 162.883,90.788 162.944 L 108.977 163.000 109.482 164.000 M182.051 163.461 C 182.941 164.534,183.077 208.118,182.194 209.465 L 181.562 210.430 163.042 210.315 C 148.017 210.222,144.397 210.096,143.858 209.648 C 143.251 209.144,143.202 207.132,143.297 186.266 L 143.400 163.436 144.400 163.158 C 146.817 162.486,181.473 162.765,182.051 163.461 M254.426 163.214 C 255.541 163.810,255.648 208.442,254.538 209.669 C 253.608 210.696,219.149 210.808,217.180 209.790 L 216.000 209.179 216.000 186.423 L 216.000 163.667 217.100 163.265 C 218.624 162.708,253.393 162.661,254.426 163.214 M327.424 163.368 C 328.174 163.916,328.204 164.693,328.316 186.225 L 328.432 208.514 327.546 209.457 L 326.661 210.400 308.916 210.400 C 293.255 210.400,291.056 210.324,290.186 209.754 L 289.200 209.108 289.200 186.415 L 289.200 163.722 290.100 163.288 C 291.593 162.568,326.431 162.642,327.424 163.368 M70.000 237.600 C 69.054 238.546,68.723 282.911,69.642 285.549 C 70.359 287.605,70.307 287.600,90.392 287.600 L 109.236 287.600 110.192 286.645 C 111.623 285.213,111.648 284.736,111.519 260.742 C 111.405 239.506,111.365 238.445,110.638 237.642 C 109.471 236.352,71.287 236.313,70.000 237.600 M142.562 237.642 C 141.836 238.444,141.794 239.504,141.675 260.342 C 141.539 284.125,141.596 285.232,143.014 286.650 L 143.964 287.600 163.021 287.600 L 182.079 287.600 183.227 286.371 C 184.862 284.621,184.851 284.814,184.719 260.665 L 184.600 238.730 183.478 237.765 L 182.355 236.800 162.840 236.800 C 143.510 236.800,143.317 236.808,142.562 237.642 M215.362 237.642 C 214.634 238.446,214.595 239.507,214.490 261.232 C 214.371 286.080,214.394 286.361,216.607 287.203 C 218.100 287.770,253.664 287.736,254.915 287.166 C 257.242 286.106,257.200 286.581,257.200 261.467 L 257.200 238.458 256.146 237.629 C 254.479 236.318,216.550 236.329,215.362 237.642 M288.182 237.782 L 287.200 238.764 287.201 261.682 C 287.203 283.693,287.234 284.651,287.982 285.878 C 289.068 287.659,288.989 287.653,309.735 287.519 L 328.070 287.400 329.035 286.278 L 330.000 285.155 330.000 261.778 C 330.000 238.933,329.982 238.382,329.200 237.600 C 328.422 236.822,327.867 236.800,308.782 236.800 L 289.164 236.800 288.182 237.782 M109.642 239.200 C 110.347 241.735,110.031 283.873,109.300 284.773 L 108.600 285.634 90.067 285.517 C 72.085 285.403,71.518 285.376,70.952 284.602 C 70.066 283.391,70.305 238.958,71.200 238.389 C 71.564 238.158,79.183 238.046,90.582 238.104 L 109.364 238.200 109.642 239.200 M182.000 238.391 C 182.969 239.004,183.124 283.133,182.162 284.601 L 181.493 285.623 163.008 285.511 C 148.052 285.421,144.396 285.295,143.861 284.851 C 143.260 284.352,143.200 282.220,143.200 261.538 L 143.200 238.774 144.100 238.412 C 145.319 237.922,181.226 237.902,182.000 238.391 M254.720 238.480 C 255.569 239.329,255.394 283.922,254.538 284.869 C 253.608 285.896,219.149 286.008,217.180 284.990 L 216.000 284.379 216.006 261.890 C 216.012 239.527,216.053 238.728,217.200 238.292 C 218.486 237.802,254.221 237.981,254.720 238.480 M327.651 238.661 C 328.099 239.200,328.221 243.422,328.316 261.518 L 328.432 283.714 327.546 284.657 L 326.661 285.600 308.916 285.600 C 293.255 285.600,291.056 285.524,290.186 284.954 L 289.200 284.308 289.200 261.783 C 289.200 241.838,289.272 239.185,289.829 238.629 C 290.810 237.647,326.835 237.678,327.651 238.661 M164.334 322.002 C 163.307 322.179,161.957 322.605,161.334 322.948 C 160.710 323.291,159.660 323.832,159.000 324.151 C 158.340 324.469,157.396 325.196,156.903 325.765 C 156.409 326.334,155.842 326.800,155.642 326.800 C 155.442 326.800,154.907 327.385,154.452 328.100 C 153.997 328.815,153.326 329.807,152.960 330.306 C 150.693 333.392,150.657 333.948,150.509 368.300 L 150.373 400.000 151.373 400.000 L 152.373 400.000 152.487 367.070 L 152.600 334.139 154.169 331.570 C 156.336 328.021,158.474 326.117,162.060 324.543 L 165.120 323.200 199.995 323.200 L 234.870 323.200 237.935 324.556 C 241.548 326.155,243.682 328.050,245.831 331.570 L 247.400 334.139 247.513 367.070 L 247.627 400.000 248.629 400.000 L 249.632 400.000 249.490 368.300 C 249.352 337.456,249.326 336.528,248.512 333.944 C 247.578 330.980,246.926 329.600,246.460 329.600 C 246.288 329.600,245.848 328.970,245.481 328.200 C 245.113 327.430,244.657 326.800,244.466 326.800 C 244.275 326.800,243.582 326.305,242.926 325.700 C 241.627 324.501,239.786 323.366,237.600 322.416 C 236.035 321.735,168.100 321.352,164.334 322.002 " stroke="none" fill="#4e92ac" fill-rule="evenodd"></path><path id="path4" d="M44.400 6.800 C 44.000 7.058,43.967 7.190,44.300 7.194 C 44.575 7.197,44.800 7.391,44.800 7.624 C 44.800 7.857,44.650 7.955,44.467 7.841 C 44.283 7.728,44.133 7.897,44.133 8.218 C 44.133 8.925,44.479 8.961,45.120 8.320 C 45.493 7.947,45.601 8.013,45.606 8.620 C 45.611 9.262,45.679 9.295,45.988 8.806 C 46.249 8.394,46.183 8.110,45.773 7.881 C 45.449 7.699,45.289 7.379,45.419 7.169 C 45.549 6.959,45.823 6.891,46.028 7.017 C 46.232 7.144,46.400 7.057,46.400 6.824 C 46.400 6.296,45.202 6.282,44.400 6.800 M353.600 6.824 C 353.600 7.057,353.780 7.136,354.000 7.000 C 354.220 6.864,354.400 6.938,354.400 7.164 C 354.400 7.390,354.691 7.463,355.046 7.327 C 355.560 7.130,355.636 7.255,355.419 7.939 C 355.200 8.632,355.309 8.800,355.976 8.800 C 356.720 8.800,356.754 8.706,356.303 7.900 C 355.506 6.474,353.600 5.716,353.600 6.824 M39.280 9.280 C 39.016 9.544,38.800 9.983,38.800 10.256 C 38.800 11.033,39.490 11.264,39.754 10.577 C 39.889 10.223,39.822 10.063,39.595 10.203 C 39.378 10.337,39.200 10.251,39.200 10.011 C 39.200 9.771,39.605 9.411,40.100 9.212 C 40.652 8.991,40.760 8.841,40.380 8.825 C 40.039 8.811,39.544 9.016,39.280 9.280 M359.200 9.151 C 359.200 9.344,359.470 9.726,359.800 10.000 C 360.502 10.582,360.616 11.381,359.938 10.962 C 359.652 10.785,359.585 10.852,359.762 11.138 C 360.156 11.776,360.305 11.724,360.814 10.774 C 361.142 10.162,361.133 9.801,360.779 9.374 C 360.255 8.743,359.200 8.594,359.200 9.151 M34.608 12.932 C 34.234 13.502,33.583 14.079,33.160 14.213 C 32.737 14.347,32.121 14.979,31.791 15.618 C 31.257 16.651,31.257 16.753,31.793 16.547 C 32.124 16.420,32.296 16.155,32.174 15.958 C 32.052 15.761,32.143 15.600,32.376 15.600 C 32.609 15.600,32.800 15.816,32.800 16.080 C 32.800 16.444,32.920 16.440,33.297 16.063 C 33.692 15.668,33.676 15.494,33.218 15.211 C 32.771 14.935,32.884 14.794,33.721 14.584 C 34.314 14.435,34.800 14.063,34.800 13.757 C 34.800 13.450,34.991 13.200,35.224 13.200 C 35.457 13.200,35.546 13.363,35.423 13.563 C 35.300 13.762,35.574 13.827,36.033 13.707 C 36.598 13.559,36.712 13.393,36.387 13.192 C 36.122 13.028,35.767 12.669,35.597 12.394 C 35.375 12.036,35.095 12.188,34.608 12.932 M363.906 12.840 C 363.242 13.556,363.259 13.599,364.306 13.854 C 364.908 14.001,365.850 14.575,366.400 15.130 C 366.950 15.684,367.147 15.989,366.838 15.807 C 366.450 15.579,366.369 15.626,366.574 15.958 C 366.802 16.326,367.003 16.329,367.436 15.970 C 367.882 15.600,368.000 15.638,368.000 16.151 C 368.000 16.508,368.163 16.800,368.363 16.800 C 369.078 16.800,368.272 15.135,367.247 14.496 C 366.671 14.137,365.840 13.449,365.400 12.968 C 364.620 12.115,364.582 12.112,363.906 12.840 M31.838 17.095 C 31.676 17.257,31.241 17.392,30.872 17.395 C 30.502 17.398,30.022 17.805,29.805 18.300 C 29.588 18.795,29.273 19.200,29.105 19.200 C 28.937 19.200,28.800 19.510,28.800 19.889 C 28.800 20.461,28.904 20.430,29.411 19.706 C 29.747 19.226,30.242 18.916,30.511 19.017 C 30.780 19.119,31.307 18.661,31.681 18.001 C 32.357 16.810,32.406 16.527,31.838 17.095 M368.510 18.282 C 368.950 19.246,369.774 19.489,370.211 18.782 C 370.577 18.190,369.683 17.243,368.819 17.309 C 368.209 17.354,368.159 17.512,368.510 18.282 M26.632 22.260 C 26.504 22.593,26.419 23.346,26.441 23.933 C 26.477 24.865,26.532 24.816,26.870 23.545 C 27.170 22.422,27.424 22.133,27.984 22.280 C 28.383 22.384,28.814 22.301,28.941 22.095 C 29.068 21.889,28.653 21.706,28.018 21.688 C 27.334 21.669,26.770 21.901,26.632 22.260 M371.052 22.085 C 371.183 22.297,371.617 22.384,372.016 22.280 C 372.576 22.133,372.830 22.422,373.130 23.545 C 373.511 24.976,373.518 24.980,373.553 23.800 C 373.572 23.140,373.456 22.396,373.294 22.147 C 372.938 21.600,370.714 21.538,371.052 22.085 M24.898 27.300 C 24.240 28.123,23.902 29.600,24.373 29.600 C 24.608 29.600,24.800 29.426,24.800 29.213 C 24.800 28.999,25.115 28.924,25.500 29.045 C 26.167 29.255,26.167 29.238,25.500 28.689 C 24.565 27.918,24.613 27.487,25.600 27.800 C 26.168 27.980,26.400 27.872,26.400 27.427 C 26.400 26.677,25.460 26.598,24.898 27.300 M373.600 27.413 C 373.600 27.826,373.817 28.002,374.161 27.870 C 375.044 27.531,375.259 28.062,374.494 28.693 C 373.863 29.213,373.861 29.246,374.474 29.055 C 374.845 28.940,375.225 29.060,375.319 29.322 C 375.413 29.585,375.621 29.679,375.782 29.530 C 375.942 29.382,375.830 28.754,375.533 28.135 C 374.919 26.854,373.600 26.361,373.600 27.413 M23.798 218.000 C 23.798 318.210,23.844 359.205,23.900 309.100 C 23.956 258.995,23.956 177.005,23.900 126.900 C 23.844 76.795,23.798 117.790,23.798 218.000 M376.198 218.000 C 376.198 318.210,376.244 359.205,376.300 309.100 C 376.356 258.995,376.356 177.005,376.300 126.900 C 376.244 76.795,376.198 117.790,376.198 218.000 M71.126 160.017 C 70.621 160.137,69.666 161.037,69.004 162.017 L 67.800 163.800 67.684 186.127 C 67.583 205.585,67.647 208.612,68.184 209.688 C 68.523 210.367,68.800 211.137,68.800 211.399 C 68.800 213.173,69.125 213.200,90.325 213.200 L 110.387 213.200 111.694 212.033 L 113.000 210.866 113.126 189.133 C 113.279 162.823,113.286 162.924,111.166 161.221 L 109.587 159.952 90.816 159.876 C 80.492 159.834,71.631 159.898,71.126 160.017 M143.422 160.126 C 140.855 160.982,140.800 161.527,140.800 185.860 C 140.800 208.877,140.994 212.048,142.452 212.828 C 142.914 213.075,150.779 213.180,163.629 213.111 L 184.071 213.000 184.836 212.056 C 185.569 211.149,185.600 210.138,185.600 186.772 L 185.600 162.432 184.500 161.404 C 183.895 160.838,183.040 160.294,182.600 160.195 C 181.118 159.862,144.407 159.797,143.422 160.126 M217.154 159.921 C 216.579 159.988,215.630 160.542,215.045 161.153 L 213.982 162.262 214.091 187.164 C 214.197 211.285,214.224 212.083,214.976 212.632 C 215.908 213.313,254.791 213.488,256.550 212.819 C 258.308 212.151,258.395 210.906,258.398 186.526 C 258.400 162.032,258.411 162.167,256.261 160.838 C 254.973 160.042,222.645 159.284,217.154 159.921 M289.954 159.921 C 289.379 159.988,288.389 160.585,287.754 161.248 L 286.600 162.453 286.600 186.985 C 286.600 210.547,286.630 211.550,287.362 212.358 C 288.351 213.451,328.351 213.709,329.824 212.632 C 330.585 212.076,331.322 165.413,330.614 162.533 C 330.004 160.048,329.437 159.978,309.328 159.885 C 299.248 159.838,290.529 159.855,289.954 159.921 M110.456 162.364 L 111.400 163.129 111.518 185.464 C 111.645 209.557,111.621 210.015,110.192 211.445 L 109.236 212.400 90.254 212.400 L 71.271 212.400 70.236 211.169 L 69.200 209.939 69.200 186.569 C 69.200 163.733,69.218 163.182,70.000 162.400 C 71.221 161.179,108.951 161.146,110.456 162.364 M183.478 162.565 L 184.600 163.530 184.713 186.197 C 184.825 208.696,184.819 208.874,183.977 210.237 C 182.617 212.437,182.981 212.400,162.808 212.400 L 143.964 212.400 143.014 211.450 C 141.596 210.032,141.539 208.925,141.675 185.142 C 141.794 164.304,141.836 163.244,142.562 162.442 C 143.317 161.608,143.510 161.600,162.840 161.600 L 182.355 161.600 183.478 162.565 M256.146 162.429 L 257.200 163.258 257.200 186.469 L 257.200 209.680 255.840 211.040 L 254.480 212.400 236.066 212.400 C 216.088 212.400,215.885 212.379,214.981 210.215 C 213.910 207.652,214.137 164.042,215.229 162.654 L 216.058 161.600 235.575 161.600 C 254.714 161.600,255.113 161.616,256.146 162.429 M328.526 162.060 C 329.007 162.313,329.532 162.718,329.694 162.960 C 329.856 163.202,329.991 173.875,329.994 186.678 L 330.000 209.955 329.035 211.078 L 328.070 212.200 309.346 212.312 C 295.732 212.393,290.314 212.296,289.492 211.955 C 287.169 210.993,287.200 211.340,287.200 186.402 L 287.200 163.564 288.182 162.582 L 289.164 161.600 308.408 161.600 C 322.135 161.600,327.903 161.732,328.526 162.060 M70.457 235.996 C 67.694 237.538,67.800 236.516,67.800 261.600 C 67.800 285.801,67.848 286.422,69.829 287.871 C 71.062 288.772,109.683 288.633,111.226 287.721 C 113.021 286.661,112.993 287.007,113.125 263.800 C 113.276 237.119,113.344 237.944,110.869 236.389 L 109.000 235.215 90.400 235.231 C 72.973 235.245,71.715 235.293,70.457 235.996 M143.248 235.884 C 140.778 237.101,140.800 236.875,140.800 261.167 C 140.800 283.559,140.987 286.860,142.315 287.900 C 143.331 288.696,182.421 288.616,183.971 287.815 C 185.650 286.947,185.600 287.748,185.600 261.829 C 185.600 235.784,185.652 236.434,183.569 236.387 C 183.256 236.380,182.651 236.110,182.224 235.787 C 180.980 234.847,145.173 234.936,143.248 235.884 M215.493 236.214 L 214.000 237.229 214.000 262.014 C 214.000 286.267,214.017 286.817,214.800 287.600 C 215.579 288.379,216.133 288.400,235.581 288.400 C 257.559 288.400,257.333 288.424,257.997 286.036 C 258.519 284.155,258.541 239.224,258.020 237.854 C 257.065 235.339,255.878 235.200,235.442 235.200 L 216.986 235.200 215.493 236.214 M290.000 235.467 C 286.065 236.807,286.325 234.733,286.477 263.536 L 286.600 286.871 287.557 287.646 C 289.049 288.854,329.343 288.640,330.235 287.419 C 330.718 286.760,330.790 282.798,330.703 261.819 L 330.600 237.000 328.815 236.100 C 327.102 235.236,292.343 234.670,290.000 235.467 M110.638 237.642 C 111.365 238.445,111.405 239.506,111.519 260.742 C 111.648 284.736,111.623 285.213,110.192 286.645 L 109.236 287.600 90.392 287.600 C 70.307 287.600,70.359 287.605,69.642 285.549 C 68.723 282.911,69.054 238.546,70.000 237.600 C 71.287 236.313,109.471 236.352,110.638 237.642 M183.478 237.765 L 184.600 238.730 184.719 260.665 C 184.851 284.814,184.862 284.621,183.227 286.371 L 182.079 287.600 163.021 287.600 L 143.964 287.600 143.014 286.650 C 141.596 285.232,141.539 284.125,141.675 260.342 C 141.794 239.504,141.836 238.444,142.562 237.642 C 143.317 236.808,143.510 236.800,162.840 236.800 L 182.355 236.800 183.478 237.765 M256.146 237.629 L 257.200 238.458 257.200 261.467 C 257.200 286.581,257.242 286.106,254.915 287.166 C 253.664 287.736,218.100 287.770,216.607 287.203 C 214.394 286.361,214.371 286.080,214.490 261.232 C 214.595 239.507,214.634 238.446,215.362 237.642 C 216.550 236.329,254.479 236.318,256.146 237.629 M329.200 237.600 C 329.982 238.382,330.000 238.933,330.000 261.778 L 330.000 285.155 329.035 286.278 L 328.070 287.400 309.735 287.519 C 288.989 287.653,289.068 287.659,287.982 285.878 C 287.234 284.651,287.203 283.693,287.201 261.682 L 287.200 238.764 288.182 237.782 L 289.164 236.800 308.782 236.800 C 327.867 236.800,328.422 236.822,329.200 237.600 M166.600 320.855 C 165.720 321.062,163.843 321.394,162.430 321.595 C 160.478 321.872,159.632 322.205,158.914 322.980 C 158.393 323.541,157.730 324.000,157.440 324.000 C 156.342 324.000,151.600 329.619,151.600 330.920 C 151.600 331.483,151.358 332.184,151.063 332.480 C 149.370 334.173,149.405 333.473,149.284 367.500 C 149.182 396.216,149.239 400.000,149.771 400.000 C 150.300 400.000,150.389 396.192,150.509 368.300 C 150.657 333.948,150.693 333.392,152.960 330.306 C 153.326 329.807,153.997 328.815,154.452 328.100 C 154.907 327.385,155.442 326.800,155.642 326.800 C 155.842 326.800,156.409 326.334,156.903 325.765 C 157.396 325.196,158.340 324.469,159.000 324.151 C 159.660 323.832,160.702 323.295,161.314 322.957 C 163.615 321.689,167.417 321.569,201.800 321.689 C 231.524 321.792,236.390 321.891,237.600 322.416 C 239.784 323.365,241.627 324.501,242.926 325.700 C 243.582 326.305,244.275 326.800,244.466 326.800 C 244.657 326.800,245.113 327.430,245.481 328.200 C 245.848 328.970,246.288 329.600,246.460 329.600 C 246.926 329.600,247.578 330.980,248.512 333.944 C 249.326 336.528,249.352 337.456,249.490 368.300 C 249.614 396.140,249.705 400.000,250.231 400.000 C 250.760 400.000,250.817 396.161,250.716 367.465 L 250.600 334.931 249.500 333.344 C 248.895 332.471,248.400 331.338,248.400 330.827 C 248.400 329.456,243.568 324.000,242.353 324.000 C 241.949 324.000,241.327 323.555,240.970 323.011 C 240.548 322.367,239.813 321.943,238.861 321.797 C 238.057 321.673,235.960 321.308,234.200 320.985 C 230.443 320.297,169.481 320.180,166.600 320.855 " stroke="none" fill="#689cac" fill-rule="evenodd"></path></g></svg>